HIERARCHY
ROOT joint_Root
{
  OFFSET 0 0 0
  CHANNELS 6 Xposition Yposition Zposition Zrotation Xrotation Yrotation
  JOINT Hips
  {
    OFFSET 0.847027 93.984 -452.225
    CHANNELS 6 Xposition Yposition Zposition Zrotation Xrotation Yrotation
    JOINT Spine
    {
      OFFSET 15.7357 0 0
      CHANNELS 6 Xposition Yposition Zposition Zrotation Xrotation Yrotation
      JOINT Chest
      {
        OFFSET 8.98455 -0.406207 0
        CHANNELS 6 Xposition Yposition Zposition Zrotation Xrotation Yrotation
        JOINT Neck
        {
          OFFSET 16.3773 0 0
          CHANNELS 6 Xposition Yposition Zposition Zrotation Xrotation Yrotation
          JOINT Head
          {
            OFFSET 6.45672 0 0
            CHANNELS 6 Xposition Yposition Zposition Zrotation Xrotation Yrotation
            End Site
            {
              OFFSET 0 0 0
            }
          }
        }
        JOINT Shoulder_L
        {
          OFFSET 12.9942 -0.242716 4.98039
          CHANNELS 6 Xposition Yposition Zposition Zrotation Xrotation Yrotation
          JOINT UpperArm_L
          {
            OFFSET 5.34809 0 0
            CHANNELS 6 Xposition Yposition Zposition Zrotation Xrotation Yrotation
            JOINT LowerArm_L
            {
              OFFSET 24.3286 1.87007e-05 0
              CHANNELS 6 Xposition Yposition Zposition Zrotation Xrotation Yrotation
              JOINT Hand_L
              {
                OFFSET 22.2916 0 0
                CHANNELS 6 Xposition Yposition Zposition Zrotation Xrotation Yrotation
                End Site
                {
                  OFFSET 0 0 0
                }
              }
            }
          }
        }
        JOINT Shoulder_R
        {
          OFFSET 12.9945 -0.242716 -4.98039
          CHANNELS 6 Xposition Yposition Zposition Zrotation Xrotation Yrotation
          JOINT UpperArm_R
          {
            OFFSET -5.34813 0 0
            CHANNELS 6 Xposition Yposition Zposition Zrotation Xrotation Yrotation
            JOINT LowerArm_R
            {
              OFFSET -24.3289 0.000322201 0
              CHANNELS 6 Xposition Yposition Zposition Zrotation Xrotation Yrotation
              JOINT Hand_R
              {
                OFFSET -22.2915 -0.000108084 0
                CHANNELS 6 Xposition Yposition Zposition Zrotation Xrotation Yrotation
                End Site
                {
                  OFFSET 0 0 0
                }
              }
            }
          }
        }
      }
    }
    JOINT UpperLeg_L
    {
      OFFSET -2.19248 -6.46944 0
      CHANNELS 6 Xposition Yposition Zposition Zrotation Xrotation Yrotation
      JOINT LowerLeg_L
      {
        OFFSET 39.0811 0 -1.23785e-05
        CHANNELS 6 Xposition Yposition Zposition Zrotation Xrotation Yrotation
        JOINT Foot_L
        {
          OFFSET 40.9854 0 -1.26872e-05
          CHANNELS 6 Xposition Yposition Zposition Zrotation Xrotation Yrotation
          JOINT Toes_L
          {
            OFFSET 11.7543 0 0
            CHANNELS 6 Xposition Yposition Zposition Zrotation Xrotation Yrotation
            End Site
            {
              OFFSET 0 0 0
            }
          }
        }
      }
    }
    JOINT UpperLeg_R
    {
      OFFSET -2.19251 6.46944 0
      CHANNELS 6 Xposition Yposition Zposition Zrotation Xrotation Yrotation
      JOINT LowerLeg_R
      {
        OFFSET -39.0811 -0.00228153 -0.0401928
        CHANNELS 6 Xposition Yposition Zposition Zrotation Xrotation Yrotation
        JOINT Foot_R
        {
          OFFSET -40.9854 0 0
          CHANNELS 6 Xposition Yposition Zposition Zrotation Xrotation Yrotation
          JOINT Toes_R
          {
            OFFSET -11.7543 0 0
            CHANNELS 6 Xposition Yposition Zposition Zrotation Xrotation Yrotation
            End Site
            {
              OFFSET 0 0 0
            }
          }
        }
      }
    }
  }
}
MOTION
Frames:	4
Frame Time:	0.0333333
0 0 0 0 0 -0 -52.5019 91.366 -43.8095 85.6136 71.1913 11.2288 15.7357 5.1072e-06 -5.51765e-07 97.7241 82.4723 -96.5371 8.98455 -0.406207 -4.3199e-07 7.13632 2.00989 2.24633 16.3773 -1.3905e-06 -6.99897e-07 3.17271 -22.9799 3.29576 6.45672 -1.25837e-06 -1.02172e-07 7.50541 -37.9413 6.29594 12.9942 -0.242716 4.98039 -90.8308 2.56672 -87.0483 5.34809 -7.22636e-06 -6.2814e-07 -65.051 26.5484 28.1047 24.3286 1.87007e-05 4.90208e-06 -9.30721 -1.37942 -81.6411 22.2916 -9.88446e-07 4.63217e-06 7.66312 5.65729 -15.7515 12.9945 -0.242716 -4.98039 88.6461 5.71514 -91.6541 -5.34813 -1.25947e-06 -3.79883e-06 -61.196 18.7842 -23.5496 -24.3289 0.000322201 -8.65921e-06 3.67078 -0.227754 -93.5519 -22.2915 -0.000108084 -4.47941e-06 15.756 5.64677 -14.7176 -2.19248 -6.46944 -1.22534e-07 -178.289 -14.056 -41.9052 39.0811 -6.73843e-06 -1.23785e-05 0.16116 0.0589609 113.144 40.9854 -6.48686e-06 -1.26872e-05 5.28858 -0.259038 -47.8276 11.7543 -2.30145e-07 3.05095e-06 0.136433 -0.227115 -20.5593 -2.19251 6.46944 -1.45247e-06 179.299 12.7991 177.2 -39.0811 -0.00228153 -0.0401928 0.026213 0.0187958 27.3586 -40.9854 7.72618e-06 5.99936e-06 0.76822 1.42431 -67.6246 -11.7543 -5.6619e-06 -5.58687e-06 0.0349822 -0.0391541 -16.96 
0 0 0 0 0 -0 -47.6807 91.6591 -43.8313 91.539 68.6346 4.19014 15.7357 5.1072e-06 -5.51765e-07 107.452 82.6597 -107.518 8.98455 -0.406207 -4.3199e-07 6.25552 4.39121 -0.370977 16.3773 -1.3905e-06 -6.99897e-07 3.32869 -21.9555 2.89617 6.45672 -1.25837e-06 -1.02172e-07 7.70142 -38.103 6.08431 12.9942 -0.242716 4.98039 -90.1357 0.382863 -85.4257 5.34809 -7.22636e-06 -6.2814e-07 -65.7364 25.3106 34.9249 24.3286 1.87007e-05 4.90208e-06 -10.4461 -1.26575 -83.1696 22.2916 -9.88446e-07 4.63217e-06 6.88781 5.65312 -15.3171 12.9945 -0.242716 -4.98039 89.368 2.93035 -92.8275 -5.34813 -1.25947e-06 -3.79883e-06 -58.2745 18.4971 -31.8957 -24.3289 0.000322201 -8.65921e-06 2.97195 -0.327323 -96.2886 -22.2915 -0.000108084 -4.47941e-06 15.7083 5.63455 -13.6905 -2.19248 -6.46944 -1.22534e-07 178.828 -14.6005 -48.0827 39.0811 -6.73843e-06 -1.23785e-05 0.205694 0.0622677 109.62 40.9854 -6.48686e-06 -1.26872e-05 5.23933 -0.666145 -52.0913 11.7543 -2.30145e-07 3.05095e-06 0.139303 -0.2323 -20.6482 -2.19251 6.46944 -1.45247e-06 174.707 14.9597 -179.364 -39.0811 -0.00228153 -0.0401928 -0.0480885 0.170287 24.2568 -40.9854 7.72618e-06 5.99936e-06 -0.0227251 7.00507 -68.87 -11.7543 -5.6619e-06 -5.58687e-06 0.092281 -0.104477 -17.599 
0 0 0 0 0 -0 -43.0438 91.5169 -43.6755 93.0092 65.6547 2.23671 15.7357 5.1072e-06 -5.51765e-07 116.261 82.3278 -117.12 8.98455 -0.406207 -4.3199e-07 6.07921 6.78371 -2.07686 16.3773 -1.3905e-06 -6.99897e-07 3.31095 -20.7142 2.23237 6.45672 -1.25837e-06 -1.02172e-07 7.63227 -38.1646 6.01527 12.9942 -0.242716 4.98039 -89.4844 -1.31813 -83.651 5.34809 -7.22636e-06 -6.2814e-07 -65.0381 23.611 39.7523 24.3286 1.87007e-05 4.90208e-06 -10.1195 -0.937028 -84.7653 22.2916 -9.88446e-07 4.63217e-06 6.43484 5.64696 -14.7274 12.9945 -0.242716 -4.98039 89.8224 0.894672 -93.782 -5.34813 -1.25947e-06 -3.79883e-06 -54.2875 16.8414 -39.17 -24.3289 0.000322201 -8.65921e-06 2.81182 -0.431262 -98.7064 -22.2915 -0.000108084 -4.47941e-06 15.4924 5.61961 -12.594 -2.19248 -6.46944 -1.22534e-07 178.305 -16.5103 -51.2065 39.0811 -6.73843e-06 -1.23785e-05 0.28212 0.049055 102.073 40.9854 -6.48686e-06 -1.26872e-05 6.2175 -4.10462 -56.7206 11.7543 -2.30145e-07 3.05095e-06 0.132957 -0.220818 -20.4505 -2.19251 6.46944 -1.45247e-06 171.83 14.4139 -175.537 -39.0811 -0.00228153 -0.0401928 -0.0895135 0.288418 21.1105 -40.9854 7.72618e-06 5.99936e-06 -1.3136 9.95453 -69.8058 -11.7543 -5.6619e-06 -5.58687e-06 0.115266 -0.13106 -17.8576 
0 0 0 0 0 -0 -38.5399 91.0155 -43.4107 92.1127 62.5503 3.32285 15.7357 5.1072e-06 -5.51765e-07 121.334 81.6142 -122.661 8.98455 -0.406207 -4.3199e-07 6.72152 8.70637 -3.16818 16.3773 -1.3905e-06 -6.99897e-07 3.19737 -19.4032 1.27429 6.45672 -1.25837e-06 -1.02172e-07 7.18716 -38.4603 6.38967 12.9942 -0.242716 4.98039 -88.9774 -2.3664 -81.6246 5.34809 -7.22636e-06 -6.2814e-07 -63.2038 20.5354 42.1691 24.3286 1.87007e-05 4.90208e-06 -8.73992 -0.642786 -85.8272 22.2916 -9.88446e-07 4.63217e-06 6.07617 5.63905 -14.0414 12.9945 -0.242716 -4.98039 89.9703 0.164824 -94.8002 -5.34813 -1.25947e-06 -3.79883e-06 -49.8392 14.5041 -45.4163 -24.3289 0.000322201 -8.65921e-06 2.2933 -0.403353 -99.9759 -22.2915 -0.000108084 -4.47941e-06 15.4855 5.61063 -12.0008 -2.19248 -6.46944 -1.22533e-07 179.764 -19.1658 -50.8892 39.0811 -6.73843e-06 -1.23785e-05 0.334013 -0.00898056 90.3703 40.9854 -6.48686e-06 -1.26872e-05 6.41009 -7.59121 -60.6731 11.7543 -2.30145e-07 3.05095e-06 0.13388 -0.222481 -20.4803 -2.19251 6.46944 -1.45247e-06 170.243 12.1393 -171.235 -39.0811 -0.00228153 -0.0401928 -0.0918362 0.334483 17.9617 -40.9854 7.72618e-06 5.99936e-06 -2.86733 11.1348 -70.5942 -11.7543 -5.6619e-06 -5.58687e-06 0.134962 -0.154071 -18.0803 
